<?xml version="1.0" standalone="no"?>
<!DOCTYPE svg PUBLIC "-//W3C//DTD SVG 20010904//EN"
 "http://www.w3.org/TR/2001/REC-SVG-20010904/DTD/svg10.dtd">
<svg version="1.0" xmlns="http://www.w3.org/2000/svg"
 width="512.000000pt" height="512.000000pt" viewBox="0 0 512.000000 512.000000"
 preserveAspectRatio="xMidYMid meet">
<metadata>
Created by potrace 1.14, written by Peter Selinger 2001-2017
</metadata>
<g transform="translate(0.000000,512.000000) scale(0.100000,-0.100000)"
fill="#000000" stroke="none">
<path d="M2379 5116 c-2 -2 -40 -6 -83 -10 -44 -4 -82 -9 -86 -11 -3 -2 -28
-6 -56 -9 -27 -2 -71 -10 -99 -16 -27 -7 -61 -14 -75 -16 -14 -3 -47 -12 -75
-20 -27 -8 -50 -14 -50 -13 0 3 -131 -40 -160 -52 -16 -7 -32 -13 -35 -13 -3
-1 -11 -5 -17 -9 -7 -5 -13 -5 -13 -1 0 3 -11 -1 -25 -10 -14 -9 -25 -14 -25
-11 0 3 -26 -8 -57 -24 -31 -16 -61 -27 -65 -25 -4 3 -8 1 -8 -5 0 -5 -10 -13
-22 -17 -13 -3 -65 -31 -116 -60 -52 -30 -95 -54 -97 -54 -8 0 -183 -125 -250
-178 -116 -93 -305 -275 -305 -293 0 -6 -4 -7 -10 -4 -5 3 -10 2 -10 -3 0 -5
-9 -20 -21 -33 -80 -94 -129 -157 -129 -167 0 -6 -4 -12 -9 -14 -11 -4 -121
-173 -121 -186 0 -6 -4 -12 -9 -14 -11 -4 -117 -210 -113 -220 1 -5 -2 -8 -8
-8 -6 0 -9 -3 -8 -7 1 -5 -5 -21 -12 -38 -7 -16 -13 -33 -12 -37 1 -5 -3 -8
-10 -8 -6 0 -8 -3 -5 -7 4 -3 2 -11 -3 -18 -5 -6 -11 -20 -13 -31 -1 -10 -6
-25 -10 -31 -5 -7 -10 -21 -12 -30 -2 -10 -11 -36 -19 -58 -8 -22 -15 -49 -16
-60 0 -12 -4 -25 -9 -30 -8 -10 -38 -122 -48 -180 -6 -36 -8 -50 -17 -95 -12
-66 -16 -95 -23 -165 -9 -86 -10 -463 -1 -525 4 -25 10 -70 14 -100 4 -30 8
-59 9 -65 1 -5 5 -28 9 -50 4 -22 14 -69 23 -105 8 -36 16 -69 17 -75 6 -24
27 -101 33 -115 3 -8 8 -23 10 -33 1 -10 12 -37 23 -59 11 -23 20 -48 20 -55
0 -12 30 -83 40 -93 3 -3 6 -12 8 -20 3 -14 86 -182 122 -248 23 -42 132 -206
140 -212 4 -3 13 -17 21 -31 39 -75 375 -429 407 -429 6 0 12 -4 12 -9 0 -23
297 -228 420 -291 25 -12 48 -27 51 -32 3 -5 9 -9 13 -8 4 1 30 -10 59 -24 29
-13 59 -26 67 -28 8 -2 21 -9 28 -15 12 -11 27 -15 48 -12 4 0 10 -3 13 -8 5
-7 109 -48 146 -57 6 -2 17 -6 25 -9 8 -4 24 -8 35 -10 11 -1 25 -5 30 -9 9
-5 169 -43 220 -51 11 -2 36 -7 55 -10 131 -24 235 -32 435 -32 99 0 212 3
250 8 124 13 140 15 165 21 14 3 39 8 55 11 109 20 283 65 325 82 8 4 20 7 25
8 6 1 26 8 45 17 19 8 53 21 75 28 22 7 46 17 53 23 6 5 12 6 12 1 0 -5 4 -3
9 4 4 7 14 14 22 16 35 5 359 184 414 228 6 5 37 28 70 53 162 120 294 245
454 430 84 97 217 299 287 435 27 52 49 97 50 100 0 3 13 31 27 63 15 32 27
62 27 67 0 6 4 10 10 10 5 0 9 3 8 8 -2 7 37 132 52 167 5 11 15 40 21 65 7
25 14 50 15 55 2 6 5 21 8 35 3 14 8 36 12 50 15 66 23 107 40 220 19 122 25
462 11 600 -12 121 -16 154 -21 176 -3 12 -8 39 -12 60 -3 21 -10 44 -15 50
-5 6 -6 13 -3 16 2 3 -5 41 -16 84 -12 44 -25 93 -30 109 -14 50 -41 128 -58
165 -9 19 -15 41 -14 48 2 6 -2 12 -8 12 -6 0 -8 4 -5 10 3 6 1 10 -4 10 -6 0
-10 3 -9 8 3 15 -15 62 -24 62 -5 0 -6 5 -3 10 3 6 1 10 -4 10 -6 0 -11 6 -11
13 0 11 -24 59 -99 198 -29 55 -152 236 -180 266 -12 12 -21 27 -21 32 0 6 -6
14 -12 18 -7 4 -34 33 -59 63 -64 76 -193 205 -264 265 -33 28 -62 53 -65 56
-3 3 -41 32 -85 65 -44 32 -82 61 -85 64 -3 3 -16 11 -30 18 -32 16 -181 108
-197 122 -7 6 -13 9 -13 6 0 -3 -24 7 -52 21 -29 15 -55 25 -57 24 -2 -2 -7 2
-11 9 -4 6 -13 13 -21 14 -13 3 -63 23 -114 46 -36 16 -170 63 -185 64 -9 1
-20 4 -25 8 -6 3 -23 9 -40 13 -16 5 -32 9 -35 10 -82 22 -206 46 -221 42 -10
-3 -17 -1 -13 4 3 5 -7 9 -23 10 -15 0 -37 2 -48 4 -65 12 -142 17 -326 20
-114 2 -208 3 -210 1z"/>
</g>
</svg>
